# xmcd
#
# Track frame offsets:
#	150
#	12661
#	22788
#	34127
#	44248
#	55225
#	67861
#	76169
#	86685
#	97801
#	107261
#	118118
#	127057
#	139580
#	151311
#	161263
#	169824
#	179782
#	191282
#	198920
#	210253
#	218728
#	229777
#	239159
#
# Disc length: 3312 seconds
#
# Revision: 1
# Processed by: cddbd v1.5.1PL2 Copyright (c) Steve Scherf et al.
# Submitted via: EasyCDDAExtractor 9.0.0.1
#
DISCID=400cee18
DTITLE=Johnny Cash - I Walk The Line
DYEAR=1999
DGENRE=Country
TTITLE0=I Walk the Line
TTITLE1=Hey Porter
TTITLE2=Oh, Lonesome Me
TTITLE3=Get Rhythm
TTITLE4=Cry Cry Cry
TTITLE5=Folsom Prison Blues
TTITLE6=Guess Things Happen That Way
TTITLE7=You Win Again
TTITLE8=The Ways of a Woman in Love
TTITLE9=Luther Played the Boogie
TTITLE10=Train of Love
TTITLE11=Two Timin' Woman
TTITLE12=Next in Line
TTITLE13=Wide Open Road
TTITLE14=Rock Island Line
TTITLE15=Country Boy
TTITLE16=Ballad of a Teenage Queen
TTITLE17=Big River
TTITLE18=Come in Stranger
TTITLE19=Don't Make Me Go
TTITLE20=Always Alone
TTITLE21=Belshazah
TTITLE22=Blue Train
TTITLE23=Down the Street to 301
EXTD=ID3G: 2
EXTT0=
EXTT1=
EXTT2=
EXTT3=
EXTT4=
EXTT5=
EXTT6=
EXTT7=
EXTT8=
EXTT9=
EXTT10=
EXTT11=
EXTT12=
EXTT13=
EXTT14=
EXTT15=
EXTT16=
EXTT17=
EXTT18=
EXTT19=
EXTT20=
EXTT21=
EXTT22=
EXTT23=
PLAYORDER=
